<svg width="24" height="24" viewBox="0 0 24 24" fill="none" xmlns="http://www.w3.org/2000/svg">
<path d="M10 22V7C10 6.44808 9.55192 6 9 6H4C2.89617 6 2 6.89617 2 8V20C2 21.1038 2.89617 22 4 22H16C17.1038 22 18 21.1038 18 20V15C18 14.4481 17.5519 14 17 14H2" stroke="white" stroke-width="2" stroke-linecap="round" stroke-linejoin="round"/>
<path d="M15 2H21C21.5519 2 22 2.44808 22 3V9C22 9.55192 21.5519 10 21 10H15C14.4481 10 14 9.55192 14 9V3C14 2.44808 14.4481 2 15 2V2" stroke="white" stroke-width="2" stroke-linecap="round" stroke-linejoin="round"/>
</svg>
