<svg width="24" height="24" viewBox="0 0 24 24" fill="none" xmlns="http://www.w3.org/2000/svg">
<path d="M4 3H20C20.5519 3 21 3.44808 21 4V9C21 9.55192 20.5519 10 20 10H4C3.44808 10 3 9.55192 3 9V4C3 3.44808 3.44808 3 4 3V3" stroke="white" stroke-width="2" stroke-linecap="round" stroke-linejoin="round"/>
<path d="M4 14H11C11.5519 14 12 14.4481 12 15V20C12 20.5519 11.5519 21 11 21H4C3.44808 21 3 20.5519 3 20V15C3 14.4481 3.44808 14 4 14V14" stroke="white" stroke-width="2" stroke-linecap="round" stroke-linejoin="round"/>
<path d="M17 14H20C20.5519 14 21 14.4481 21 15V20C21 20.5519 20.5519 21 20 21H17C16.4481 21 16 20.5519 16 20V15C16 14.4481 16.4481 14 17 14V14" stroke="white" stroke-width="2" stroke-linecap="round" stroke-linejoin="round"/>
</svg>
