<svg width="160" height="40" viewBox="0 0 160 40" fill="none" xmlns="http://www.w3.org/2000/svg">
<rect width="40" height="40" rx="2" fill="white"/>
<path d="M10.6061 25.6482C9.79113 25.6482 9.08164 25.5229 8.47761 25.2724C7.87359 25.0219 7.4029 24.651 7.06557 24.1597C6.72824 23.6683 6.54891 23.0616 6.52758 22.3393H8.55832C8.58493 22.6827 8.68713 22.9694 8.8649 23.1993C9.04268 23.4292 9.28004 23.6015 9.57699 23.7161C9.87394 23.8307 10.2096 23.888 10.5839 23.888C10.9556 23.888 11.28 23.8338 11.557 23.7252C11.834 23.6167 12.0495 23.4644 12.2034 23.2685C12.3573 23.0726 12.4342 22.8463 12.4342 22.5897C12.4342 22.3551 12.3653 22.1592 12.2275 22.0021C12.0897 21.845 11.8903 21.7103 11.6292 21.5978C11.3682 21.4853 11.0517 21.3851 10.6797 21.2971L9.56001 21.0187C8.69786 20.8084 8.02231 20.4788 7.53336 20.0298C7.0444 19.5809 6.79992 18.986 6.79992 18.245C6.79992 17.6314 6.96595 17.0945 7.29799 16.6343C7.63004 16.1741 8.08438 15.8163 8.66102 15.5609C9.23766 15.3055 9.89471 15.1777 10.6322 15.1777C11.3858 15.1777 12.0428 15.3067 12.6033 15.5646C13.1638 15.8225 13.6007 16.18 13.914 16.6371C14.2273 17.0942 14.3893 17.6208 14.4002 18.217H12.383C12.3434 17.8089 12.1686 17.4926 11.8585 17.2682C11.5483 17.0438 11.1333 16.9316 10.6133 16.9316C10.2595 16.9316 9.95737 16.9825 9.70695 17.0842C9.45653 17.1859 9.26602 17.3259 9.13541 17.5041C9.0048 17.6823 8.9395 17.8854 8.9395 18.1134C8.9395 18.363 9.01556 18.5702 9.16768 18.735C9.31979 18.8998 9.52031 19.034 9.76922 19.1375C10.0181 19.241 10.2853 19.327 10.5708 19.3954L11.4897 19.6203C11.9182 19.7178 12.3173 19.8488 12.6871 20.0133C13.0569 20.1778 13.3805 20.3796 13.6579 20.6186C13.9353 20.8576 14.1511 21.1406 14.3054 21.4677C14.4597 21.7948 14.5369 22.1719 14.5369 22.5991C14.5369 23.2166 14.3811 23.7542 14.0696 24.2119C13.758 24.6696 13.3093 25.0234 12.7234 25.2733C12.1376 25.5232 11.4318 25.6482 10.6061 25.6482ZM18.7832 25.6271C18.1989 25.6271 17.671 25.4758 17.1994 25.1732C16.7277 24.8705 16.3552 24.4267 16.0818 23.8416C15.8083 23.2565 15.6716 22.54 15.6716 21.6918C15.6716 20.8212 15.8125 20.0945 16.0944 19.5117C16.3763 18.9289 16.7524 18.4916 17.2228 18.1996C17.6932 17.9077 18.2095 17.7617 18.7716 17.7617C19.2043 17.7617 19.5647 17.8345 19.8527 17.9801C20.1406 18.1257 20.3731 18.3053 20.55 18.5188C20.7269 18.7323 20.8601 18.9406 20.9495 19.1438H21.0157V15.3145H23.0657V25.5H21.0493V24.2768H20.9495C20.8552 24.482 20.7179 24.6882 20.5376 24.8952C20.3574 25.1022 20.1246 25.2759 19.8393 25.4164C19.5539 25.5569 19.2019 25.6271 18.7832 25.6271ZM19.4144 23.9839C19.7636 23.9839 20.0608 23.8878 20.306 23.6957C20.5511 23.5036 20.7379 23.2353 20.8663 22.891C20.9947 22.5466 21.0589 22.1448 21.0589 21.6855C21.0589 21.2213 20.9952 20.8191 20.8679 20.4788C20.7405 20.1384 20.5543 19.8744 20.3091 19.6866C20.0639 19.4989 19.7657 19.405 19.4144 19.405C19.0569 19.405 18.7562 19.502 18.5125 19.696C18.2687 19.8901 18.0849 20.1583 17.9611 20.5008C17.8373 20.8432 17.7754 21.2381 17.7754 21.6855C17.7754 22.1326 17.8378 22.5295 17.9627 22.8761C18.0875 23.2227 18.2724 23.494 18.5172 23.6899C18.762 23.8859 19.0611 23.9839 19.4144 23.9839ZM28.4424 25.5H25.8043V23.7018H28.3456C29.0003 23.7018 29.5495 23.5859 29.9932 23.3541C30.4368 23.1223 30.771 22.7624 30.9956 22.2746C31.2201 21.7867 31.3324 21.1624 31.3324 20.4015C31.3324 19.6423 31.2194 19.0204 30.9934 18.5357C30.7675 18.051 30.4343 17.6926 29.9941 17.4606C29.5539 17.2286 29.0085 17.1126 28.3579 17.1126H25.7569V15.3145H28.48C29.503 15.3145 30.3819 15.5179 31.1168 15.9247C31.8517 16.3315 32.4176 16.915 32.8145 17.675C33.2114 18.435 33.4098 19.3438 33.4098 20.4015C33.4098 21.4609 33.2114 22.3716 32.8147 23.1337C32.418 23.8959 31.8487 24.4808 31.1069 24.8885C30.3651 25.2962 29.4769 25.5 28.4424 25.5ZM26.9501 15.3145V25.5H24.8613V15.3145H26.9501Z" fill="#071226"/>
<path d="M61.8456 16.2159C60.8674 16.2159 60.0175 16.0606 59.2957 15.7501C58.574 15.4396 58.0099 14.9965 57.6037 14.4207C57.1974 13.8449 56.9721 13.1581 56.9278 12.3603H58.9406C58.9833 12.8356 59.1384 13.229 59.406 13.5404C59.6736 13.8518 60.0205 14.0838 60.4466 14.2365C60.8727 14.3891 61.3358 14.4654 61.8361 14.4654C62.3899 14.4654 62.8834 14.3777 63.3166 14.2023C63.7498 14.0269 64.0912 13.78 64.3407 13.4616C64.5903 13.1433 64.7151 12.7748 64.7151 12.3562C64.7151 11.9744 64.6064 11.662 64.3892 11.4189C64.1719 11.1758 63.8765 10.9735 63.5029 10.812C63.1293 10.6505 62.7065 10.5079 62.2346 10.3843L60.7 9.96613C59.6274 9.67679 58.791 9.25037 58.1909 8.68688C57.5907 8.12338 57.2906 7.3938 57.2906 6.49814C57.2906 5.74299 57.4946 5.08222 57.9025 4.51586C58.3104 3.94949 58.8645 3.51001 59.5648 3.19741C60.265 2.88481 61.0544 2.72852 61.933 2.72852C62.8302 2.72852 63.6196 2.88534 64.3012 3.19899C64.9828 3.51265 65.5187 3.94222 65.9088 4.48773C66.2989 5.03324 66.5041 5.65445 66.5244 6.35136H64.57C64.5023 5.75066 64.2243 5.28601 63.7359 4.95741C63.2475 4.62882 62.6321 4.46452 61.8897 4.46452C61.3631 4.46452 60.9045 4.54784 60.514 4.71448C60.1234 4.88112 59.8221 5.10908 59.6098 5.39836C59.3976 5.68764 59.2915 6.01785 59.2915 6.38898C59.2915 6.80066 59.4188 7.13459 59.6735 7.39076C59.9281 7.64694 60.2387 7.84897 60.6051 7.99686C60.9716 8.14475 61.3214 8.26264 61.6547 8.35053L62.9216 8.68715C63.3396 8.79145 63.7694 8.93354 64.2111 9.11342C64.6528 9.2933 65.062 9.52528 65.4387 9.80934C65.8154 10.0934 66.1198 10.4452 66.3519 10.8646C66.5841 11.2841 66.7001 11.7885 66.7001 12.3779C66.7001 13.1191 66.5094 13.7792 66.1278 14.3581C65.7462 14.9371 65.1936 15.3914 64.4698 15.7212C63.7461 16.051 62.8713 16.2159 61.8456 16.2159ZM72.2765 16.123C71.6091 16.123 71.0236 15.9829 70.52 15.7025C70.0164 15.4221 69.6251 15.006 69.3463 14.4542C69.0674 13.9023 68.928 13.2234 68.928 12.4172V6.17383H70.8612V12.1762C70.8612 12.8836 71.0467 13.4377 71.4178 13.8385C71.7888 14.2394 72.2954 14.4398 72.9377 14.4398C73.3749 14.4398 73.7649 14.3444 74.108 14.1535C74.4511 13.9627 74.7221 13.684 74.9209 13.3175C75.1198 12.951 75.2192 12.5105 75.2192 11.9961V6.17383H77.1597V16H75.3092L75.2966 13.5944H75.4885C75.1986 14.4827 74.7791 15.1262 74.2301 15.525C73.6811 15.9237 73.0299 16.123 72.2765 16.123ZM79.7561 19.6738V6.17383H81.6398V7.77396H81.7998C81.9142 7.56971 82.0753 7.33296 82.283 7.06372C82.4906 6.79448 82.7812 6.55835 83.1546 6.35532C83.528 6.15229 84.0203 6.05078 84.6316 6.05078C85.4213 6.05078 86.1245 6.25006 86.7411 6.64861C87.3578 7.04717 87.8447 7.62426 88.2018 8.37988C88.5589 9.13551 88.7375 10.0456 88.7375 11.1101C88.7375 12.1689 88.5617 13.0776 88.2101 13.8361C87.8586 14.5947 87.3742 15.1775 86.7571 15.5845C86.1399 15.9916 85.4317 16.1951 84.6325 16.1951C84.0409 16.1951 83.5565 16.0937 83.1794 15.8909C82.8022 15.6881 82.5069 15.4516 82.2933 15.1812C82.0798 14.9109 81.9153 14.6712 81.7998 14.4621H81.6894V19.6738H79.7561ZM84.2037 14.5475C84.7673 14.5475 85.2388 14.3952 85.6181 14.0905C85.9974 13.7858 86.2832 13.3727 86.4754 12.8511C86.6676 12.3295 86.7637 11.7443 86.7637 11.0957C86.7637 10.4508 86.6688 9.87238 86.479 9.36039C86.2892 8.84839 86.0046 8.44339 85.6253 8.14538C85.246 7.84737 84.7721 7.69837 84.2037 7.69837C83.6509 7.69837 83.1852 7.84017 82.8066 8.12376C82.4281 8.40736 82.1422 8.80275 81.949 9.30994C81.7558 9.81713 81.6591 10.4124 81.6591 11.0957C81.6591 11.7769 81.757 12.3769 81.9526 12.8955C82.1482 13.4142 82.4365 13.8192 82.8174 14.1105C83.1984 14.4019 83.6605 14.5475 84.2037 14.5475ZM95.015 16.2046C94.0927 16.2046 93.288 15.9934 92.6007 15.571C91.9135 15.1486 91.38 14.5568 91.0002 13.7956C90.6205 13.0344 90.4306 12.1499 90.4306 11.1421C90.4306 10.1199 90.6205 9.22697 91.0002 8.46338C91.38 7.69979 91.9135 7.10679 92.6007 6.68438C93.288 6.26198 94.0927 6.05078 95.015 6.05078C95.9421 6.05078 96.7499 6.26198 97.4385 6.68438C98.1271 7.10679 98.6613 7.69979 99.041 8.46338C99.4207 9.22697 99.6106 10.1199 99.6106 11.1421C99.6106 12.1499 99.4207 13.0344 99.041 13.7956C98.6613 14.5568 98.1271 15.1486 97.4385 15.571C96.7499 15.9934 95.9421 16.2046 95.015 16.2046ZM95.015 14.5697C95.6128 14.5697 96.1068 14.4129 96.4971 14.0995C96.8874 13.786 97.1772 13.3693 97.3664 12.8493C97.5557 12.3293 97.6503 11.7592 97.6503 11.1389C97.6503 10.5128 97.5557 9.93815 97.3664 9.41497C97.1772 8.89178 96.8874 8.47278 96.4971 8.15795C96.1068 7.84313 95.6128 7.68571 95.015 7.68571C94.421 7.68571 93.931 7.84313 93.5449 8.15795C93.1589 8.47278 92.8713 8.89058 92.682 9.41136C92.4928 9.93215 92.3981 10.508 92.3981 11.1389C92.3981 11.7592 92.4928 12.3293 92.682 12.8493C92.8713 13.3693 93.1589 13.786 93.5449 14.0995C93.931 14.4129 94.421 14.5697 95.015 14.5697ZM101.755 16V6.17383H103.626V7.75199H103.732C103.912 7.21808 104.229 6.79867 104.681 6.49375C105.133 6.18883 105.646 6.03637 106.22 6.03637C106.344 6.03637 106.485 6.04088 106.645 6.0499C106.804 6.05893 106.935 6.07006 107.038 6.0833V7.92882C106.967 7.90761 106.833 7.88502 106.633 7.86105C106.433 7.83709 106.231 7.82511 106.025 7.82511C105.578 7.82511 105.178 7.91956 104.823 8.10847C104.468 8.29737 104.191 8.55741 103.99 8.88858C103.789 9.21976 103.688 9.60167 103.688 10.0343V16H101.755ZM113.229 6.17383V7.74566H107.899V6.17383H113.229ZM109.335 3.83594H111.268V13.342C111.268 13.7393 111.351 14.03 111.516 14.2142C111.682 14.3985 111.956 14.4906 112.34 14.4906C112.44 14.4906 112.572 14.4786 112.736 14.4546C112.9 14.4307 113.04 14.407 113.158 14.3835L113.5 15.933C113.293 16.0011 113.072 16.0506 112.837 16.0815C112.602 16.1124 112.372 16.1278 112.147 16.1278C111.252 16.1278 110.56 15.8987 110.07 15.4404C109.58 14.9821 109.335 14.3358 109.335 13.5014V3.83594ZM119.209 16.2046C118.242 16.2046 117.408 15.9955 116.707 15.5773C116.006 15.1592 115.466 14.5721 115.088 13.8163C114.71 13.0604 114.521 12.1738 114.521 11.1565C114.521 10.1477 114.707 9.26022 115.078 8.49423C115.449 7.72823 115.975 7.12949 116.654 6.69801C117.333 6.26652 118.129 6.05078 119.042 6.05078C119.604 6.05078 120.146 6.14248 120.67 6.32588C121.194 6.50928 121.663 6.79762 122.079 7.1909C122.495 7.58418 122.824 8.09377 123.067 8.71967C123.31 9.34556 123.431 10.1015 123.431 10.9876V11.6737H115.597V10.2302H122.435L121.532 10.7065C121.532 10.1063 121.439 9.57625 121.252 9.1164C121.065 8.65656 120.788 8.2972 120.42 8.03833C120.052 7.77947 119.595 7.65003 119.048 7.65003C118.502 7.65003 118.035 7.78187 117.648 8.04554C117.261 8.30921 116.966 8.65656 116.762 9.08758C116.558 9.51859 116.456 9.98857 116.456 10.4975V11.4786C116.456 12.1524 116.572 12.7227 116.804 13.1894C117.035 13.6562 117.359 14.0089 117.777 14.2475C118.195 14.4861 118.679 14.6054 119.229 14.6054C119.589 14.6054 119.917 14.5537 120.212 14.4502C120.507 14.3468 120.76 14.1913 120.973 13.9836C121.186 13.776 121.349 13.5189 121.462 13.2123L123.276 13.6405C123.122 14.1496 122.858 14.5966 122.486 14.9816C122.113 15.3666 121.649 15.6667 121.095 15.8819C120.541 16.097 119.913 16.2046 119.209 16.2046ZM60.9526 36.1951C60.1593 36.1951 59.4526 35.9916 58.8325 35.5845C58.2124 35.1775 57.7265 34.5947 57.375 33.8361C57.0234 33.0776 56.8476 32.1689 56.8476 31.1101C56.8476 30.0456 57.0262 29.1355 57.3833 28.3799C57.7404 27.6243 58.2288 27.0472 58.8484 26.6486C59.4679 26.2501 60.1697 26.0508 60.9535 26.0508C61.5648 26.0508 62.0571 26.1523 62.4305 26.3553C62.8039 26.5583 63.0959 26.7945 63.3065 27.0637C63.5171 27.333 63.6767 27.5697 63.7854 27.774H63.8957V22.9043H65.829V36H63.9453V34.4621H63.7854C63.6746 34.6712 63.5113 34.9109 63.2954 35.1812C63.0795 35.4516 62.7844 35.6881 62.4101 35.8909C62.0359 36.0937 61.5501 36.1951 60.9526 36.1951ZM61.3814 34.5475C61.9295 34.5475 62.3928 34.4019 62.7713 34.1105C63.1498 33.8192 63.4369 33.4142 63.6325 32.8955C63.8282 32.3769 63.926 31.7769 63.926 31.0957C63.926 30.4124 63.8294 29.8171 63.6361 29.3099C63.4429 28.8027 63.157 28.4074 62.7785 28.1238C62.4 27.8402 61.9343 27.6984 61.3814 27.6984C60.8141 27.6984 60.3405 27.8474 59.9606 28.1454C59.5807 28.4434 59.2959 28.8484 59.1061 29.3604C58.9163 29.8724 58.8215 30.4508 58.8215 31.0957C58.8215 31.7443 58.9175 32.3295 59.1097 32.8511C59.3019 33.3727 59.5892 33.7858 59.9714 34.0905C60.3537 34.3952 60.8237 34.5475 61.3814 34.5475ZM72.6623 36.2046C71.6952 36.2046 70.861 35.9955 70.1599 35.5773C69.4588 35.1592 68.9193 34.5721 68.5414 33.8163C68.1635 33.0604 67.9746 32.1738 67.9746 31.1565C67.9746 30.1477 68.1602 29.2602 68.5314 28.4942C68.9026 27.7282 69.4278 27.1295 70.1071 26.698C70.7863 26.2665 71.5824 26.0508 72.4951 26.0508C73.0567 26.0508 73.5993 26.1425 74.123 26.3259C74.6468 26.5093 75.1165 26.7976 75.5322 27.1909C75.9479 27.5842 76.2772 28.0938 76.5202 28.7197C76.7631 29.3456 76.8846 30.1015 76.8846 30.9876V31.6737H69.05V30.2302H75.8881L74.9853 30.7065C74.9853 30.1063 74.8918 29.5762 74.705 29.1164C74.5181 28.6566 74.2408 28.2972 73.8729 28.0383C73.5051 27.7795 73.0479 27.65 72.5015 27.65C71.955 27.65 71.4883 27.7819 71.1012 28.0455C70.7141 28.3092 70.4187 28.6566 70.2151 29.0876C70.0114 29.5186 69.9096 29.9886 69.9096 30.4975V31.4786C69.9096 32.1524 70.0253 32.7227 70.2566 33.1894C70.488 33.6562 70.8126 34.0089 71.2303 34.2475C71.648 34.4861 72.132 34.6054 72.6822 34.6054C73.0425 34.6054 73.3701 34.5537 73.6649 34.4502C73.9597 34.3468 74.2134 34.1913 74.4261 33.9836C74.6388 33.776 74.8019 33.5189 74.9155 33.2123L76.7295 33.6405C76.5751 34.1496 76.3115 34.5966 75.9387 34.9816C75.5659 35.3666 75.1025 35.6667 74.5484 35.8819C73.9944 36.097 73.3657 36.2046 72.6623 36.2046ZM88.2075 36H84.9675V34.245H88.0957C89.0872 34.245 89.9115 34.0596 90.5684 33.6887C91.2254 33.3179 91.7172 32.774 92.044 32.0571C92.3707 31.3402 92.534 30.4652 92.534 29.4321C92.534 28.4075 92.3713 27.5404 92.046 26.8307C91.7206 26.121 91.238 25.5817 90.5982 25.2127C89.9583 24.8438 89.1611 24.6593 88.2065 24.6593H84.9004V22.9043H88.335C89.625 22.9043 90.7292 23.1653 91.6476 23.6873C92.5661 24.2093 93.2715 24.9584 93.7639 25.9345C94.2562 26.9106 94.5024 28.0765 94.5024 29.4321C94.5024 30.7963 94.2553 31.9688 93.7611 32.9498C93.2668 33.9307 92.5502 34.6843 91.6112 35.2106C90.6721 35.7369 89.5376 36 88.2075 36ZM85.9566 22.9043V36H83.9482V22.9043H85.9566ZM100.921 36.2046C99.999 36.2046 99.1942 35.9934 98.507 35.571C97.8197 35.1486 97.2862 34.5568 96.9065 33.7956C96.5268 33.0344 96.3369 32.1499 96.3369 31.1421C96.3369 30.1199 96.5268 29.227 96.9065 28.4634C97.2862 27.6998 97.8197 27.1068 98.507 26.6844C99.1942 26.262 99.999 26.0508 100.921 26.0508C101.848 26.0508 102.656 26.262 103.345 26.6844C104.033 27.1068 104.568 27.6998 104.947 28.4634C105.327 29.227 105.517 30.1199 105.517 31.1421C105.517 32.1499 105.327 33.0344 104.947 33.7956C104.568 34.5568 104.033 35.1486 103.345 35.571C102.656 35.9934 101.848 36.2046 100.921 36.2046ZM100.921 34.5697C101.519 34.5697 102.013 34.4129 102.403 34.0995C102.794 33.786 103.083 33.3693 103.273 32.8493C103.462 32.3293 103.557 31.7592 103.557 31.1389C103.557 30.5128 103.462 29.9382 103.273 29.415C103.083 28.8918 102.794 28.4728 102.403 28.158C102.013 27.8431 101.519 27.6857 100.921 27.6857C100.327 27.6857 99.8372 27.8431 99.4512 28.158C99.0652 28.4728 98.7775 28.8906 98.5883 29.4114C98.399 29.9321 98.3044 30.508 98.3044 31.1389C98.3044 31.7592 98.399 32.3293 98.5883 32.8493C98.7775 33.3693 99.0652 33.786 99.4512 34.0995C99.8372 34.4129 100.327 34.5697 100.921 34.5697ZM107.661 36V26.1738H109.503L109.552 28.4534H109.406C109.545 27.8959 109.761 27.4376 110.054 27.0784C110.347 26.7192 110.689 26.4509 111.082 26.2736C111.475 26.0962 111.885 26.0075 112.312 26.0075C113.024 26.0075 113.599 26.2288 114.039 26.6715C114.479 27.1141 114.776 27.7297 114.93 28.5184H114.688C114.814 27.9798 115.037 27.5236 115.354 27.1499C115.672 26.7761 116.054 26.4923 116.5 26.2984C116.945 26.1045 117.426 26.0075 117.941 26.0075C118.52 26.0075 119.044 26.1332 119.514 26.3846C119.984 26.636 120.357 27.0104 120.633 27.5079C120.909 28.0054 121.047 28.6271 121.047 29.373V36H119.114V29.5704C119.114 28.9121 118.931 28.4361 118.565 28.1425C118.2 27.8489 117.768 27.7021 117.27 27.7021C116.866 27.7021 116.518 27.7878 116.224 27.9591C115.93 28.1305 115.703 28.3665 115.545 28.6672C115.386 28.9678 115.307 29.3146 115.307 29.7074V36H113.402V29.4407C113.402 28.9169 113.233 28.4962 112.897 28.1785C112.56 27.8609 112.13 27.7021 111.608 27.7021C111.252 27.7021 110.92 27.7854 110.612 27.9519C110.304 28.1185 110.057 28.3641 109.872 28.6888C109.687 29.0135 109.595 29.4155 109.595 29.8948V36H107.661ZM123.649 36V26.1738H125.582V36H123.649ZM124.621 24.6746C124.289 24.6746 124.004 24.562 123.765 24.3368C123.526 24.1117 123.407 23.8414 123.407 23.5262C123.407 23.2045 123.526 22.9326 123.765 22.7104C124.004 22.4882 124.289 22.3771 124.621 22.3771C124.957 22.3771 125.245 22.4882 125.484 22.7102C125.723 22.9323 125.842 23.2043 125.842 23.5261C125.842 23.8415 125.723 24.1118 125.484 24.3369C125.245 24.562 124.957 24.6746 124.621 24.6746ZM130.117 30.1778V36H128.184V26.1738H130.027L130.047 28.5794H129.848C130.133 27.7007 130.548 27.0596 131.092 26.6561C131.636 26.2525 132.294 26.0508 133.067 26.0508C133.735 26.0508 134.32 26.191 134.821 26.4713C135.321 26.7517 135.711 27.1666 135.99 27.716C136.269 28.2655 136.408 28.9457 136.408 29.7566V36H134.475V29.9976C134.475 29.2902 134.291 28.7362 133.922 28.3353C133.554 27.9345 133.048 27.7341 132.406 27.7341C131.97 27.7341 131.579 27.8295 131.233 28.0203C130.887 28.2112 130.614 28.4884 130.415 28.8519C130.217 29.2155 130.117 29.6575 130.117 30.1778ZM143.122 39.8848C142.364 39.8848 141.708 39.7888 141.152 39.5968C140.596 39.4049 140.137 39.1468 139.775 38.8226C139.414 38.4984 139.14 38.1391 138.955 37.7448L140.566 36.9851C140.688 37.1705 140.846 37.3682 141.042 37.5783C141.238 37.7883 141.502 37.9655 141.834 38.1097C142.166 38.254 142.594 38.3261 143.118 38.3261C143.866 38.3261 144.472 38.1497 144.939 37.7968C145.405 37.444 145.638 36.8896 145.638 36.1338V34.2188H145.469C145.356 34.4316 145.195 34.6648 144.986 34.9184C144.777 35.172 144.486 35.3904 144.114 35.5735C143.742 35.7566 143.256 35.8481 142.657 35.8481C141.888 35.8481 141.194 35.6663 140.574 35.3027C139.954 34.939 139.464 34.4009 139.102 33.6881C138.74 32.9754 138.56 32.0968 138.56 31.0525C138.56 30.0071 138.74 29.1115 139.1 28.3655C139.46 27.6195 139.951 27.0472 140.573 26.6486C141.195 26.2501 141.898 26.0508 142.683 26.0508C143.289 26.0508 143.781 26.1511 144.157 26.3517C144.534 26.5523 144.829 26.7885 145.043 27.0601C145.257 27.3318 145.421 27.5697 145.536 27.774H145.671V26.1738H147.562V36.1426C147.562 37 147.367 37.7055 146.977 38.2591C146.587 38.8126 146.057 39.2219 145.387 39.4871C144.717 39.7522 143.962 39.8848 143.122 39.8848ZM143.108 34.2425C143.657 34.2425 144.12 34.1148 144.498 33.8592C144.876 33.6036 145.163 33.235 145.359 32.7534C145.554 32.2718 145.652 31.6952 145.652 31.0236C145.652 30.3643 145.556 29.7859 145.362 29.2883C145.169 28.7907 144.884 28.4014 144.506 28.1202C144.128 27.839 143.662 27.6984 143.108 27.6984C142.54 27.6984 142.066 27.8462 141.683 28.1418C141.301 28.4374 141.014 28.8352 140.822 29.3352C140.629 29.8351 140.533 30.398 140.533 31.0236C140.533 31.6627 140.631 32.2242 140.825 32.7081C141.02 33.1921 141.308 33.5689 141.691 33.8383C142.073 34.1078 142.545 34.2425 143.108 34.2425ZM154.297 36.2046C153.375 36.2046 152.57 35.9934 151.883 35.571C151.196 35.1486 150.662 34.5568 150.282 33.7956C149.903 33.0344 149.713 32.1499 149.713 31.1421C149.713 30.1199 149.903 29.227 150.282 28.4634C150.662 27.6998 151.196 27.1068 151.883 26.6844C152.57 26.262 153.375 26.0508 154.297 26.0508C155.224 26.0508 156.032 26.262 156.721 26.6844C157.409 27.1068 157.943 27.6998 158.323 28.4634C158.703 29.227 158.893 30.1199 158.893 31.1421C158.893 32.1499 158.703 33.0344 158.323 33.7956C157.943 34.5568 157.409 35.1486 156.721 35.571C156.032 35.9934 155.224 36.2046 154.297 36.2046ZM154.297 34.5697C154.895 34.5697 155.389 34.4129 155.779 34.0995C156.17 33.786 156.459 33.3693 156.649 32.8493C156.838 32.3293 156.933 31.7592 156.933 31.1389C156.933 30.5128 156.838 29.9382 156.649 29.415C156.459 28.8918 156.17 28.4728 155.779 28.158C155.389 27.8431 154.895 27.6857 154.297 27.6857C153.703 27.6857 153.213 27.8431 152.827 28.158C152.441 28.4728 152.154 28.8906 151.964 29.4114C151.775 29.9321 151.68 30.508 151.68 31.1389C151.68 31.7592 151.775 32.3293 151.964 32.8493C152.154 33.3693 152.441 33.786 152.827 34.0995C153.213 34.4129 153.703 34.5697 154.297 34.5697Z" fill="white"/>
</svg>
