<svg width="40" height="40" viewBox="0 0 40 40" fill="none" xmlns="http://www.w3.org/2000/svg">
<rect width="40" height="40" rx="2" fill="white"/>
<path d="M10.6061 25.6482C9.79113 25.6482 9.08164 25.5229 8.47761 25.2724C7.87359 25.0219 7.4029 24.651 7.06557 24.1597C6.72824 23.6683 6.54891 23.0616 6.52758 22.3393H8.55832C8.58493 22.6827 8.68713 22.9694 8.8649 23.1993C9.04268 23.4292 9.28004 23.6015 9.57699 23.7161C9.87394 23.8307 10.2096 23.888 10.5839 23.888C10.9556 23.888 11.28 23.8338 11.557 23.7252C11.834 23.6167 12.0495 23.4644 12.2034 23.2685C12.3573 23.0726 12.4342 22.8463 12.4342 22.5897C12.4342 22.3551 12.3653 22.1592 12.2275 22.0021C12.0897 21.845 11.8903 21.7103 11.6292 21.5978C11.3682 21.4853 11.0517 21.3851 10.6797 21.2971L9.56001 21.0187C8.69786 20.8084 8.02231 20.4788 7.53336 20.0298C7.0444 19.5809 6.79992 18.986 6.79992 18.245C6.79992 17.6314 6.96595 17.0945 7.29799 16.6343C7.63004 16.1741 8.08438 15.8163 8.66102 15.5609C9.23766 15.3055 9.89471 15.1777 10.6322 15.1777C11.3858 15.1777 12.0428 15.3067 12.6033 15.5646C13.1638 15.8225 13.6007 16.18 13.914 16.6371C14.2273 17.0942 14.3893 17.6208 14.4002 18.217H12.383C12.3434 17.8089 12.1686 17.4926 11.8585 17.2682C11.5483 17.0438 11.1333 16.9316 10.6133 16.9316C10.2595 16.9316 9.95737 16.9825 9.70695 17.0842C9.45653 17.1859 9.26602 17.3259 9.13541 17.5041C9.0048 17.6823 8.9395 17.8854 8.9395 18.1134C8.9395 18.363 9.01556 18.5702 9.16768 18.735C9.31979 18.8998 9.52031 19.034 9.76922 19.1375C10.0181 19.241 10.2853 19.327 10.5708 19.3954L11.4897 19.6203C11.9182 19.7178 12.3173 19.8488 12.6871 20.0133C13.0569 20.1778 13.3805 20.3796 13.6579 20.6186C13.9353 20.8576 14.1511 21.1406 14.3054 21.4677C14.4597 21.7948 14.5369 22.1719 14.5369 22.5991C14.5369 23.2166 14.3811 23.7542 14.0696 24.2119C13.758 24.6696 13.3093 25.0234 12.7234 25.2733C12.1376 25.5232 11.4318 25.6482 10.6061 25.6482ZM18.7832 25.6271C18.1989 25.6271 17.671 25.4758 17.1994 25.1732C16.7277 24.8705 16.3552 24.4267 16.0818 23.8416C15.8083 23.2565 15.6716 22.54 15.6716 21.6918C15.6716 20.8212 15.8125 20.0945 16.0944 19.5117C16.3763 18.9289 16.7524 18.4916 17.2228 18.1996C17.6932 17.9077 18.2095 17.7617 18.7716 17.7617C19.2043 17.7617 19.5647 17.8345 19.8527 17.9801C20.1406 18.1257 20.3731 18.3053 20.55 18.5188C20.7269 18.7323 20.8601 18.9406 20.9495 19.1438H21.0157V15.3145H23.0657V25.5H21.0493V24.2768H20.9495C20.8552 24.482 20.7179 24.6882 20.5376 24.8952C20.3574 25.1022 20.1246 25.2759 19.8393 25.4164C19.5539 25.5569 19.2019 25.6271 18.7832 25.6271ZM19.4144 23.9839C19.7636 23.9839 20.0608 23.8878 20.306 23.6957C20.5511 23.5036 20.7379 23.2353 20.8663 22.891C20.9947 22.5466 21.0589 22.1448 21.0589 21.6855C21.0589 21.2213 20.9952 20.8191 20.8679 20.4788C20.7405 20.1384 20.5543 19.8744 20.3091 19.6866C20.0639 19.4989 19.7657 19.405 19.4144 19.405C19.0569 19.405 18.7562 19.502 18.5125 19.696C18.2687 19.8901 18.0849 20.1583 17.9611 20.5008C17.8373 20.8432 17.7754 21.2381 17.7754 21.6855C17.7754 22.1326 17.8378 22.5295 17.9627 22.8761C18.0875 23.2227 18.2724 23.494 18.5172 23.6899C18.762 23.8859 19.0611 23.9839 19.4144 23.9839ZM28.4424 25.5H25.8043V23.7018H28.3456C29.0003 23.7018 29.5495 23.5859 29.9932 23.3541C30.4368 23.1223 30.771 22.7624 30.9956 22.2746C31.2201 21.7867 31.3324 21.1624 31.3324 20.4015C31.3324 19.6423 31.2194 19.0204 30.9934 18.5357C30.7675 18.051 30.4343 17.6926 29.9941 17.4606C29.5539 17.2286 29.0085 17.1126 28.3579 17.1126H25.7569V15.3145H28.48C29.503 15.3145 30.3819 15.5179 31.1168 15.9247C31.8517 16.3315 32.4176 16.915 32.8145 17.675C33.2114 18.435 33.4098 19.3438 33.4098 20.4015C33.4098 21.4609 33.2114 22.3716 32.8147 23.1337C32.418 23.8959 31.8487 24.4808 31.1069 24.8885C30.3651 25.2962 29.4769 25.5 28.4424 25.5ZM26.9501 15.3145V25.5H24.8613V15.3145H26.9501Z" fill="#071226"/>
</svg>
